{
    "asset" : {
        "generator" : "Khronos glTF Blender I/O v1.7.33",
        "version" : "2.0"
    },
    "scene" : 0,
    "scenes" : [
        {
            "name" : "Scene",
            "nodes" : [
                0
            ]
        }
    ],
    "nodes" : [
        {
            "mesh" : 0,
            "name" : "Circle"
        }
    ],
    "materials" : [
        {
            "doubleSided" : true,
            "emissiveFactor" : [
                0.9758212566375732,
                0.2393510341644287,
                0.03952765464782715
            ],
            "name" : "Pot",
            "pbrMetallicRoughness" : {
                "baseColorFactor" : [
                    1,
                    0.20079980790615082,
                    0.020316947251558304,
                    1
                ],
                "metallicFactor" : 0,
                "roughnessFactor" : 0.5
            }
        },
        {
            "doubleSided" : true,
            "name" : "Mud",
            "pbrMetallicRoughness" : {
                "baseColorFactor" : [
                    0.16999034583568573,
                    0.036043912172317505,
                    0,
                    1
                ],
                "metallicFactor" : 0
            }
        }
    ],
    "meshes" : [
        {
            "name" : "Circle",
            "primitives" : [
                {
                    "attributes" : {
                        "POSITION" : 0,
                        "NORMAL" : 1,
                        "TEXCOORD_0" : 2
                    },
                    "indices" : 3,
                    "material" : 0
                },
                {
                    "attributes" : {
                        "POSITION" : 4,
                        "NORMAL" : 5,
                        "TEXCOORD_0" : 6
                    },
                    "indices" : 7,
                    "material" : 1
                }
            ]
        }
    ],
    "accessors" : [
        {
            "bufferView" : 0,
            "componentType" : 5126,
            "count" : 544,
            "max" : [
                1.5890285968780518,
                2.4261093139648438,
                1.5890285968780518
            ],
            "min" : [
                -1.5890285968780518,
                0,
                -1.5890285968780518
            ],
            "type" : "VEC3"
        },
        {
            "bufferView" : 1,
            "componentType" : 5126,
            "count" : 544,
            "type" : "VEC3"
        },
        {
            "bufferView" : 2,
            "componentType" : 5126,
            "count" : 544,
            "type" : "VEC2"
        },
        {
            "bufferView" : 3,
            "componentType" : 5123,
            "count" : 858,
            "type" : "SCALAR"
        },
        {
            "bufferView" : 4,
            "componentType" : 5126,
            "count" : 32,
            "max" : [
                1.5890285968780518,
                1.9771835803985596,
                1.5890285968780518
            ],
            "min" : [
                -1.5890285968780518,
                1.9771835803985596,
                -1.5890285968780518
            ],
            "type" : "VEC3"
        },
        {
            "bufferView" : 5,
            "componentType" : 5126,
            "count" : 32,
            "type" : "VEC3"
        },
        {
            "bufferView" : 6,
            "componentType" : 5126,
            "count" : 32,
            "type" : "VEC2"
        },
        {
            "bufferView" : 7,
            "componentType" : 5123,
            "count" : 90,
            "type" : "SCALAR"
        }
    ],
    "bufferViews" : [
        {
            "buffer" : 0,
            "byteLength" : 6528,
            "byteOffset" : 0
        },
        {
            "buffer" : 0,
            "byteLength" : 6528,
            "byteOffset" : 6528
        },
        {
            "buffer" : 0,
            "byteLength" : 4352,
            "byteOffset" : 13056
        },
        {
            "buffer" : 0,
            "byteLength" : 1716,
            "byteOffset" : 17408
        },
        {
            "buffer" : 0,
            "byteLength" : 384,
            "byteOffset" : 19124
        },
        {
            "buffer" : 0,
            "byteLength" : 384,
            "byteOffset" : 19508
        },
        {
            "buffer" : 0,
            "byteLength" : 256,
            "byteOffset" : 19892
        },
        {
            "buffer" : 0,
            "byteLength" : 180,
            "byteOffset" : 20148
        }
    ],
    "buffers" : [
        {
            "byteLength" : 20328,
            "uri" : "pot.bin"
        }
    ]
}
